<svg xmlns="http://www.w3.org/2000/svg" viewBox="28 46 152 130" width="152" height="130" role="img" aria-label="Anjung Kampung icon">
  <!-- Icon only: Minangkabau house + coconut palm. Works on light/cream backgrounds. -->
  <g transform="translate(-16,0)">
    <line x1="87" y1="68" x2="97" y2="54" stroke="#1F4D3F" stroke-width="3.5" stroke-linecap="round"/>
    <line x1="97" y1="68" x2="87" y2="54" stroke="#1F4D3F" stroke-width="3.5" stroke-linecap="round"/>
    <rect x="66" y="120" width="52" height="34" rx="6" fill="#1F4D3F"/>
    <path d="M54 114 C52 98 50 86 48 76 C58 88 66 94 72 96 C80 88 86 76 92 66 C98 76 104 88 112 96 C118 94 130 86 136 76 C134 86 132 102 130 114 Q92 124 54 114 Z" fill="#C0532A"/>
    <path d="M82 154 L82 138 Q82 130 92 130 Q102 130 102 138 L102 154 Z" fill="#C0532A"/>
    <rect x="56" y="160" width="72" height="6" rx="3" fill="#1F4D3F"/>
  </g>
  <path d="M140 166 Q142 120 147 80" fill="none" stroke="#C0532A" stroke-width="5" stroke-linecap="round"/>
  <path d="M147 80 C134 67 128 67 121 71" fill="none" stroke="#1F4D3F" stroke-width="3.5" stroke-linecap="round"/>
  <path d="M147 80 C133 79 127 85 122 93" fill="none" stroke="#1F4D3F" stroke-width="3.5" stroke-linecap="round"/>
  <path d="M147 80 C146 62 148 56 151 50" fill="none" stroke="#1F4D3F" stroke-width="3.5" stroke-linecap="round"/>
  <path d="M147 80 C159 66 164 66 168 72" fill="none" stroke="#1F4D3F" stroke-width="3.5" stroke-linecap="round"/>
  <path d="M147 80 C160 78 165 84 169 92" fill="none" stroke="#1F4D3F" stroke-width="3.5" stroke-linecap="round"/>
  <circle cx="142" cy="87" r="3" fill="#C0532A"/>
  <circle cx="149" cy="89" r="3" fill="#C0532A"/>
  <circle cx="155" cy="87" r="3" fill="#C0532A"/>
</svg>
